HIERARCHY
ROOT reference
{
  OFFSET 0 0 0
  CHANNELS 6 Xposition Yposition Zposition Zrotation Xrotation Yrotation
  JOINT Hips
  {
    OFFSET -18.7171 75.6738 -44.899
    CHANNELS 6 Xposition Yposition Zposition Zrotation Xrotation Yrotation
    JOINT Spine
    {
      OFFSET 0 7.52385 0
      CHANNELS 6 Xposition Yposition Zposition Zrotation Xrotation Yrotation
      JOINT Spine1
      {
        OFFSET 0 21.7843 0
        CHANNELS 6 Xposition Yposition Zposition Zrotation Xrotation Yrotation
        JOINT Neck
        {
          OFFSET 0 21.6948 1.97225
          CHANNELS 6 Xposition Yposition Zposition Zrotation Xrotation Yrotation
          JOINT Head
          {
            OFFSET 0 12.8456 -1.83509
            CHANNELS 6 Xposition Yposition Zposition Zrotation Xrotation Yrotation
            End Site
            {
              OFFSET 0 22.9386 0
            }
          }
        }
        JOINT LeftShoulder
        {
          OFFSET 3.65748 19.7052 -0.211895
          CHANNELS 6 Xposition Yposition Zposition Zrotation Xrotation Yrotation
          JOINT LeftArm
          {
            OFFSET 11.1953 0 0
            CHANNELS 6 Xposition Yposition Zposition Zrotation Xrotation Yrotation
            JOINT LeftForeArm
            {
              OFFSET 29.6607 0 0
              CHANNELS 6 Xposition Yposition Zposition Zrotation Xrotation Yrotation
              JOINT LeftHand
              {
                OFFSET 23.3476 0 0
                CHANNELS 6 Xposition Yposition Zposition Zrotation Xrotation Yrotation
                End Site
                {
                  OFFSET 13.7631 0 0
                }
              }
            }
          }
        }
        JOINT RightShoulder
        {
          OFFSET -3.68053 19.7052 -0.211895
          CHANNELS 6 Xposition Yposition Zposition Zrotation Xrotation Yrotation
          JOINT RightArm
          {
            OFFSET -11.1953 0 0
            CHANNELS 6 Xposition Yposition Zposition Zrotation Xrotation Yrotation
            JOINT RightForeArm
            {
              OFFSET -29.6607 0 0
              CHANNELS 6 Xposition Yposition Zposition Zrotation Xrotation Yrotation
              JOINT RightHand
              {
                OFFSET -23.3476 0 0
                CHANNELS 6 Xposition Yposition Zposition Zrotation Xrotation Yrotation
                End Site
                {
                  OFFSET -13.7631 0 0
                }
              }
            }
          }
        }
      }
    }
    JOINT LeftUpLeg
    {
      OFFSET 9.17543 0 0
      CHANNELS 6 Xposition Yposition Zposition Zrotation Xrotation Yrotation
      JOINT LeftLeg
      {
        OFFSET 0 -39.1216 0
        CHANNELS 6 Xposition Yposition Zposition Zrotation Xrotation Yrotation
        JOINT LeftFoot
        {
          OFFSET 0 -35.3569 0
          CHANNELS 6 Xposition Yposition Zposition Zrotation Xrotation Yrotation
          JOINT LeftToeBase
          {
            OFFSET 0 -5.96403 13.7631
            CHANNELS 6 Xposition Yposition Zposition Zrotation Xrotation Yrotation
            End Site
            {
              OFFSET 0 0 3.67017
            }
          }
        }
      }
    }
    JOINT RightUpLeg
    {
      OFFSET -9.17543 0 0
      CHANNELS 6 Xposition Yposition Zposition Zrotation Xrotation Yrotation
      JOINT RightLeg
      {
        OFFSET 0 -39.1216 0
        CHANNELS 6 Xposition Yposition Zposition Zrotation Xrotation Yrotation
        JOINT RightFoot
        {
          OFFSET 0 -35.3569 0
          CHANNELS 6 Xposition Yposition Zposition Zrotation Xrotation Yrotation
          JOINT RightToeBase
          {
            OFFSET 0 -5.96403 13.7631
            CHANNELS 6 Xposition Yposition Zposition Zrotation Xrotation Yrotation
            End Site
            {
              OFFSET 0 0 3.67017
            }
          }
        }
      }
    }
  }
}
MOTION
Frames:	5
Frame Time:	0.004
0 0 0 0 0 -0 -7.60287 71.5561 -186.826 11.0276 -4.64421 79.7265 -2.84217e-014 7.52385 7.10543e-015 -0.158647 11.9004 -0.721691 -2.84217e-014 21.7843 -7.10543e-015 2.19901 8.89602 -0.909303 0 21.6948 1.97225 -3.56585 12.2369 -33.6615 -2.84217e-014 12.8456 -1.83509 25.1421 8.19122 -33.6533 3.65748 19.7052 -0.211895 -6.47636 19.4025 -5.34542 11.1953 -1.42109e-014 0 -55.6373 45.169 -6.05852 29.6607 0 0 21.9555 -24.2731 -46.3828 23.3476 -2.84217e-014 0 4.78986 -15.0691 5.78922 -3.68053 19.7052 -0.211895 6.38517 20.7299 0.254187 -11.1953 0 0 35.4334 45.8339 27.1547 -29.6607 0 -1.42109e-014 -17.4427 -17.8554 40.2604 -23.3476 1.42109e-014 0 -0.858712 -11.6278 0.576316 9.17543 0 3.55271e-015 4.45664 -0.101524 0.39188 0 -39.1216 0 -6.91047 37.853 -2.89883 -2.84217e-014 -35.3569 0 9.67238 -29.9209 15.8631 0 -5.96403 13.7631 -1.69401e-032 8.13775e-016 1.19271e-015 -9.17543 1.42109e-014 0 -6.50875 -9.23933 1.50879 0 -39.1216 0 14.6452 43.0919 -5.69786 0 -35.3569 0 -0.374479 -22.5233 -19.7456 0 -5.96403 13.7631 -0 -1.98785e-016 -0 
0 0 0 0 0 -0 -7.66588 71.4936 -186.823 11.0658 -4.72614 79.6401 0 7.52385 0 -0.178159 11.9947 -0.642754 0 21.7843 0 2.25773 9.0122 -0.839447 0 21.6948 1.97225 -3.50317 12.2463 -33.6818 0 12.8456 -1.83509 25.1578 7.97496 -33.6281 3.65748 19.7052 -0.211895 -6.44891 19.5434 -5.26739 11.1953 0 0 -55.5071 45.1337 -6.27939 29.6607 7.10543e-015 0 22.232 -24.5183 -46.4613 23.3476 0 0 4.60597 -15.1981 5.85899 -3.68053 19.7052 -0.211895 6.35654 20.6955 0.242051 -11.1953 0 0 35.3423 45.6002 27.1596 -29.6607 -1.42109e-014 1.42109e-014 -17.6761 -17.6756 40.5945 -23.3476 0 0 -0.854283 -11.2973 0.38243 9.17543 0 0 4.56606 -0.229167 0.480071 0 -39.1216 3.55271e-015 -6.99215 38.1838 -2.86479 0 -35.3569 0 9.73004 -30.0792 15.8799 2.84217e-014 -5.96403 13.7631 -3.87941e-034 -5.59082e-017 -3.97569e-016 -9.17543 -1.42109e-014 0 -6.63794 -9.61025 1.37855 0 -39.1216 -3.55271e-015 15.0159 43.7594 -5.76351 2.84217e-014 -35.3569 -1.42109e-014 0.141668 -22.5067 -19.5046 0 -5.96403 13.7631 -3.97569e-016 -1.98785e-016 -0 
0 0 0 0 0 -0 -7.72545 71.4353 -186.816 11.1136 -4.80086 79.5259 0 7.52385 -3.55271e-015 -0.2127 12.0924 -0.556514 0 21.7843 0 2.32127 9.13444 -0.764453 0 21.6948 1.97225 -3.36307 12.2608 -33.7789 1.42109e-014 12.8456 -1.83509 24.982 7.74327 -33.6952 3.65748 19.7052 -0.211895 -6.45701 19.5498 -5.22374 11.1953 0 1.42109e-014 -55.4522 45.0041 -6.33156 29.6607 -1.42109e-014 -2.84217e-014 22.3546 -24.604 -46.577 23.3476 0 2.84217e-014 4.5528 -15.2071 5.99078 -3.68053 19.7052 -0.211895 6.31569 20.6677 0.26707 -11.1953 0 0 35.272 45.3565 27.148 -29.6607 0 -7.10543e-015 -17.8915 -17.623 40.8391 -23.3476 2.84217e-014 -2.84217e-014 -0.60089 -11.1191 0.460027 9.17543 -1.42109e-014 -3.55271e-015 4.67097 -0.334593 0.585717 0 -39.1216 7.10543e-015 -7.08418 38.4979 -2.80241 0 -35.3569 0 9.7636 -30.2136 15.8778 0 -5.96403 13.7631 3.97569e-016 2.60905e-016 3.97569e-016 -9.17543 -1.42109e-014 0 -6.77104 -9.9802 1.26658 2.84217e-014 -39.1216 3.55271e-015 15.368 44.4539 -5.58972 0 -35.3569 7.10543e-015 0.498122 -22.3961 -19.4223 0 -5.96403 13.7631 3.97569e-016 0 -3.18055e-015 
0 0 0 0 0 -0 -7.78778 71.376 -186.809 11.1438 -4.87368 79.4341 0 7.52385 0 -0.235831 12.1695 -0.482415 0 21.7843 0 2.37675 9.26523 -0.700314 -2.84217e-014 21.6948 1.97225 -3.37382 12.2874 -33.782 2.84217e-014 12.8456 -1.83509 25.0801 7.56053 -33.6526 3.65748 19.7052 -0.211895 -6.44802 19.519 -5.1842 11.1953 1.42109e-014 0 -55.4429 44.9528 -6.3425 29.6607 -7.10543e-015 0 22.5008 -24.7528 -46.6484 23.3476 -2.84217e-014 0 4.52142 -15.2873 5.98026 -3.68053 19.7052 -0.211895 6.27744 20.6227 0.293729 -11.1953 2.13163e-014 0 35.223 45.1046 27.1205 -29.6607 1.42109e-014 -7.10543e-015 -18.0985 -17.5725 41.0858 -23.3476 1.42109e-014 2.84217e-014 -0.39353 -10.9447 0.536948 9.17543 0 -3.55271e-015 4.77074 -0.454748 0.677251 -2.84217e-014 -39.1216 -3.55271e-015 -7.15101 38.8038 -2.765 -2.84217e-014 -35.3569 0 9.76256 -30.3708 15.8977 -2.84217e-014 -5.96403 13.7631 -0 -6.21202e-017 -0 -9.17543 0 -3.55271e-015 -6.87912 -10.3578 1.07281 0 -39.1216 -3.55271e-015 15.5811 45.1509 -5.55785 2.84217e-014 -35.3569 0 1.13875 -22.3815 -19.0839 0 -5.96403 13.7631 7.95139e-016 7.95139e-016 9.54166e-015 
0 0 0 0 0 -0 -7.85134 71.3098 -186.795 11.2166 -4.93955 79.3408 0 7.52385 -3.55271e-015 -0.297679 12.2952 -0.409082 -2.84217e-014 21.7843 7.10543e-015 2.46134 9.38748 -0.643282 -2.84217e-014 21.6948 1.97225 -3.3859 12.3133 -33.7994 0 12.8456 -1.83509 25.1555 7.4002 -33.6313 3.65748 19.7052 -0.211895 -6.46743 19.4814 -5.1395 11.1953 -1.42109e-014 -1.42109e-014 -55.4269 44.903 -6.32936 29.6607 -7.10543e-015 0 22.6483 -24.8876 -46.7135 23.3476 -2.84217e-014 0 4.48783 -15.3536 5.96349 -3.68053 19.7052 -0.211895 6.25477 20.6479 0.366537 -11.1953 1.42109e-014 1.42109e-014 35.121 44.7763 27.0962 -29.6607 0 -7.10543e-015 -18.3084 -17.4976 41.3641 -23.3476 0 -2.84217e-014 -0.556106 -10.738 0.473556 9.17543 1.42109e-014 0 4.86899 -0.541122 0.741783 -2.84217e-014 -39.1216 -7.10543e-015 -7.2558 39.1197 -2.68318 0 -35.3569 0 10.1487 -30.333 16.1277 0 -5.96403 13.7631 -3.97569e-016 -1.55922e-015 -3.97569e-016 -9.17543 0 -3.55271e-015 -7.02988 -10.6913 0.940553 0 -39.1216 -7.10543e-015 15.9233 45.8293 -5.53236 0 -35.3569 0 1.77949 -22.444 -18.8308 0 -5.96403 13.7631 7.95139e-016 -3.97569e-016 3.18055e-015 
